<svg width="24" height="25" viewBox="0 0 24 25" fill="none" xmlns="http://www.w3.org/2000/svg">
<mask id="mask0_1075_11506" style="mask-type:alpha" maskUnits="userSpaceOnUse" x="0" y="0" width="24" height="25">
<rect y="24.7324" width="24" height="24" transform="rotate(-90 0 24.7324)" fill="#B6B6B6"/>
</mask>
<g mask="url(#mask0_1075_11506)">
<path d="M11.9996 15.1832L19.3496 7.8332C19.5996 7.5832 19.8913 7.46237 20.2246 7.4707C20.558 7.47904 20.8496 7.6082 21.0996 7.8582C21.3496 8.1082 21.4746 8.39987 21.4746 8.7332C21.4746 9.06654 21.3496 9.3582 21.0996 9.6082L13.4246 17.3082C13.2246 17.5082 12.9996 17.6582 12.7496 17.7582C12.4996 17.8582 12.2496 17.9082 11.9996 17.9082C11.7496 17.9082 11.4996 17.8582 11.2496 17.7582C10.9996 17.6582 10.7746 17.5082 10.5746 17.3082L2.87462 9.6082C2.62462 9.3582 2.50379 9.06237 2.51212 8.7207C2.52045 8.37904 2.64962 8.0832 2.89962 7.8332C3.14962 7.5832 3.44129 7.4582 3.77462 7.4582C4.10795 7.4582 4.39962 7.5832 4.64962 7.8332L11.9996 15.1832Z" fill="#B6B6B6"/>
</g>
</svg>
