<svg width="44" height="44" viewBox="0 0 44 44" fill="none" xmlns="http://www.w3.org/2000/svg">
<g id="arrow">
<g id="arrow_back_ios">
<mask id="mask0_2129_11595" style="mask-type:alpha" maskUnits="userSpaceOnUse" x="0" y="0" width="44" height="44">
<rect id="Bounding box" width="44" height="44" fill="#D9D9D9"/>
</mask>
<g mask="url(#mask0_2129_11595)">
<path id="arrow_back_ios_2" d="M5.17933 22.0004L19.6168 36.4379C19.9529 36.774 20.121 37.1941 20.121 37.6983C20.121 38.2024 19.9529 38.6379 19.6168 39.0045C19.2502 39.3712 18.8147 39.5545 18.3106 39.5545C17.8064 39.5545 17.371 39.3712 17.0043 39.0045L1.92516 23.9254C1.65016 23.6504 1.45155 23.3448 1.32933 23.0087C1.20711 22.6726 1.146 22.3365 1.146 22.0004C1.146 21.6643 1.20711 21.3281 1.32933 20.992C1.45155 20.6559 1.65016 20.3504 1.92516 20.0754L17.0502 4.95036C17.4168 4.5837 17.8446 4.408 18.3335 4.42328C18.8224 4.43856 19.2502 4.62953 19.6168 4.9962C19.9529 5.36286 20.1286 5.79064 20.1439 6.27953C20.1592 6.76842 19.9835 7.1962 19.6168 7.56286L5.17933 22.0004Z" fill="#1C1C1C"/>
</g>
</g>
</g>
</svg>
