<svg width="100" height="100" viewBox="0 0 100 100" fill="none" xmlns="http://www.w3.org/2000/svg">
<rect width="100" height="100" fill="white"/>
<circle cx="47" cy="44" r="32" stroke="#C37BFF" stroke-width="6"/>
<rect x="65" y="71.2422" width="6" height="31.8322" rx="3" transform="rotate(-45 65 71.2422)" fill="#C37BFF"/>
<mask id="mask0_2129_11449" style="mask-type:alpha" maskUnits="userSpaceOnUse" x="24" y="22" width="46" height="46">
<rect x="24" y="22" width="46" height="46" fill="#D9D9D9"/>
</mask>
<g mask="url(#mask0_2129_11449)">
<path d="M38.7817 34.4333L44.1484 27.4854C44.5317 26.9743 44.9869 26.599 45.514 26.3594C46.0411 26.1198 46.5922 26 47.1672 26C47.7422 26 48.2932 26.1198 48.8203 26.3594C49.3474 26.599 49.8026 26.9743 50.1859 27.4854L55.5526 34.4333L63.6984 37.1646C64.529 37.4201 65.1838 37.8913 65.663 38.5781C66.1422 39.2649 66.3817 40.0236 66.3817 40.8542C66.3817 41.2375 66.3258 41.6208 66.214 42.0042C66.1022 42.3875 65.9185 42.7549 65.663 43.1063L60.3922 50.5813L60.5838 58.4396C60.6158 59.5576 60.2484 60.5 59.4817 61.2667C58.7151 62.0333 57.8206 62.4167 56.7984 62.4167C56.7345 62.4167 56.3831 62.3688 55.7442 62.2729L47.1672 59.8771L38.5901 62.2729C38.4303 62.3368 38.2547 62.3767 38.063 62.3927C37.8713 62.4087 37.6956 62.4167 37.5359 62.4167C36.5137 62.4167 35.6192 62.0333 34.8526 61.2667C34.0859 60.5 33.7185 59.5576 33.7505 58.4396L33.9422 50.5333L28.7192 43.1063C28.4637 42.7549 28.28 42.3875 28.1682 42.0042C28.0564 41.6208 28.0005 41.2375 28.0005 40.8542C28.0005 40.0556 28.2321 39.3128 28.6953 38.626C29.1585 37.9392 29.8053 37.4521 30.6359 37.1646L38.7817 34.4333Z" fill="#7711CA"/>
</g>
</svg>
