<svg width="34" height="26" viewBox="0 0 34 26" fill="none" xmlns="http://www.w3.org/2000/svg">
<g clip-path="url(#clip0_1075_11472)">
<mask id="mask0_1075_11472" style="mask-type:luminance" maskUnits="userSpaceOnUse" x="1" y="1" width="32" height="24">
<rect x="1" y="1" width="32" height="24" fill="white"/>
</mask>
<g mask="url(#mask0_1075_11472)">
<path fill-rule="evenodd" clip-rule="evenodd" d="M1 1V25H33V1H1Z" fill="#F6F7F8"/>
<mask id="mask1_1075_11472" style="mask-type:luminance" maskUnits="userSpaceOnUse" x="1" y="1" width="32" height="24">
<path fill-rule="evenodd" clip-rule="evenodd" d="M1 1V25H33V1H1Z" fill="white"/>
</mask>
<g mask="url(#mask1_1075_11472)">
<path fill-rule="evenodd" clip-rule="evenodd" d="M16.9983 19.2194C20.201 19.2194 22.7973 16.4621 22.7973 13.0609C22.7973 9.65961 20.201 6.90234 16.9983 6.90234C13.7955 6.90234 11.1992 9.65961 11.1992 13.0609C11.1992 16.4621 13.7955 19.2194 16.9983 19.2194Z" fill="#3D58DB"/>
<mask id="mask2_1075_11472" style="mask-type:luminance" maskUnits="userSpaceOnUse" x="11" y="6" width="12" height="14">
<path fill-rule="evenodd" clip-rule="evenodd" d="M16.9983 19.2194C20.201 19.2194 22.7973 16.4621 22.7973 13.0609C22.7973 9.65961 20.201 6.90234 16.9983 6.90234C13.7955 6.90234 11.1992 9.65961 11.1992 13.0609C11.1992 16.4621 13.7955 19.2194 16.9983 19.2194Z" fill="white"/>
</mask>
<g mask="url(#mask2_1075_11472)">
<path fill-rule="evenodd" clip-rule="evenodd" d="M23.0019 13.5335C23.0019 13.5335 22.6764 10.6295 20.2657 10.4719C17.8551 10.3142 17.2051 12.6015 17.066 13.2074C16.9269 13.8134 16.5748 15.4299 14.0366 15.4299C11.4985 15.4299 11.2695 11.3195 11.2695 11.3195V6.47266H23.0019V13.5335Z" fill="#E31D1C"/>
</g>
<path fill-rule="evenodd" clip-rule="evenodd" d="M8.29885 3.05273L9.21381 3.88026L4.97356 8.83216L4.05859 8.00464L8.29885 3.05273ZM9.80784 4.39189L10.7228 5.21942L6.63454 10.0996L5.71958 9.27206L9.80784 4.39189ZM12.2249 6.57508L11.3099 5.74755L7.2103 10.6648L8.12526 11.4923L12.2249 6.57508Z" fill="#272727"/>
<path fill-rule="evenodd" clip-rule="evenodd" d="M26.3644 2.70508L25.4493 3.52951L27.0367 5.39234L27.9518 4.56791L26.3644 2.70508ZM29.186 6.13172L28.2709 6.95615L29.8583 8.81898L30.7734 7.99455L29.186 6.13172ZM22.4287 6.2127L23.3438 5.38827L24.9312 7.2511L24.0161 8.07553L22.4287 6.2127ZM26.1654 8.8149L25.2503 9.63933L26.8377 11.5022L27.7528 10.6777L26.1654 8.8149ZM23.9962 4.83109L24.9114 4.00666L29.33 9.38752L28.4148 10.212L23.9962 4.83109Z" fill="#272727"/>
<path fill-rule="evenodd" clip-rule="evenodd" d="M27.0548 15.2437L26.1319 14.416L24.5311 16.2861L25.454 17.1138L27.0548 15.2437ZM24.3635 18.5347L23.4406 17.707L21.8398 19.5771L22.7627 20.4048L24.3635 18.5347ZM29.0464 17.0334L29.9692 17.861L28.3684 19.7311L27.4456 18.9035L29.0464 17.0334ZM27.4095 21.2283L26.4867 20.4007L24.8859 22.2708L25.8087 23.0984L27.4095 21.2283ZM24.9664 18.9786L25.8893 19.8062L24.2183 21.8032L23.2955 20.9755L24.9664 18.9786ZM28.6307 16.4788L27.7078 15.6511L26.0369 17.6481L26.9598 18.4757L28.6307 16.4788Z" fill="#272727"/>
<path fill-rule="evenodd" clip-rule="evenodd" d="M7.40645 15.8898L8.32165 15.0645L12.4062 19.7449L11.491 20.5702L7.40645 15.8898ZM8.35925 19.9835L9.27445 19.1581L10.9998 21.0537L10.0846 21.879L8.35925 19.9835ZM5.30931 17.6907L4.39411 18.516L8.49991 23.2594L9.41511 22.4341L5.30931 17.6907ZM5.96049 17.1521L6.8757 16.3268L8.37137 18.0806L7.45616 18.906L5.96049 17.1521Z" fill="#272727"/>
</g>
</g>
</g>
<rect x="0.5" y="0.5" width="33" height="25" rx="2.5" stroke="#E4E4E4"/>
<defs>
<clipPath id="clip0_1075_11472">
<rect x="1" y="1" width="32" height="24" rx="2" fill="white"/>
</clipPath>
</defs>
</svg>
