<svg width="32" height="24" viewBox="0 0 32 24" fill="none" xmlns="http://www.w3.org/2000/svg">
<g clip-path="url(#clip0_1075_11512)">
<mask id="mask0_1075_11512" style="mask-type:luminance" maskUnits="userSpaceOnUse" x="0" y="0" width="32" height="24">
<rect width="32" height="24" fill="white"/>
</mask>
<g mask="url(#mask0_1075_11512)">
<path fill-rule="evenodd" clip-rule="evenodd" d="M0 0H32V24H0V0Z" fill="#F7FCFF"/>
<path fill-rule="evenodd" clip-rule="evenodd" d="M0 14.666V16.666H32V14.666H0Z" fill="#E31D1C"/>
<path fill-rule="evenodd" clip-rule="evenodd" d="M0 18.334V20.334H32V18.334H0Z" fill="#E31D1C"/>
<path fill-rule="evenodd" clip-rule="evenodd" d="M0 7.33398V9.33398H32V7.33398H0Z" fill="#E31D1C"/>
<path fill-rule="evenodd" clip-rule="evenodd" d="M0 22V24H32V22H0Z" fill="#E31D1C"/>
<path fill-rule="evenodd" clip-rule="evenodd" d="M0 11V13H32V11H0Z" fill="#E31D1C"/>
<path fill-rule="evenodd" clip-rule="evenodd" d="M0 0V2H32V0H0Z" fill="#E31D1C"/>
<path fill-rule="evenodd" clip-rule="evenodd" d="M0 3.66602V5.66602H32V3.66602H0Z" fill="#E31D1C"/>
<rect width="20" height="13" fill="#2E42A5"/>
<path fill-rule="evenodd" clip-rule="evenodd" d="M1.72319 2.93822L0.997308 3.4471L1.24237 2.54149L0.597656 1.96758H1.43974L1.72217 1.22852L2.05334 1.96758H2.7712L2.20716 2.54149L2.42553 3.4471L1.72319 2.93822ZM5.72319 2.93822L4.99731 3.4471L5.24237 2.54149L4.59766 1.96758H5.43974L5.72217 1.22852L6.05334 1.96758H6.7712L6.20716 2.54149L6.42553 3.4471L5.72319 2.93822ZM8.99731 3.4471L9.72319 2.93822L10.4255 3.4471L10.2072 2.54149L10.7712 1.96758H10.0533L9.72217 1.22852L9.43974 1.96758H8.59766L9.24237 2.54149L8.99731 3.4471ZM13.7232 2.93822L12.9973 3.4471L13.2424 2.54149L12.5977 1.96758H13.4397L13.7222 1.22852L14.0533 1.96758H14.7712L14.2072 2.54149L14.4255 3.4471L13.7232 2.93822ZM0.997308 7.4471L1.72319 6.93822L2.42553 7.4471L2.20716 6.54149L2.7712 5.96758H2.05334L1.72217 5.22852L1.43974 5.96758H0.597656L1.24237 6.54149L0.997308 7.4471ZM5.72319 6.93822L4.99731 7.4471L5.24237 6.54149L4.59766 5.96758H5.43974L5.72217 5.22852L6.05334 5.96758H6.7712L6.20716 6.54149L6.42553 7.4471L5.72319 6.93822ZM8.99731 7.4471L9.72319 6.93822L10.4255 7.4471L10.2072 6.54149L10.7712 5.96758H10.0533L9.72217 5.22852L9.43974 5.96758H8.59766L9.24237 6.54149L8.99731 7.4471ZM13.7232 6.93822L12.9973 7.4471L13.2424 6.54149L12.5977 5.96758H13.4397L13.7222 5.22852L14.0533 5.96758H14.7712L14.2072 6.54149L14.4255 7.4471L13.7232 6.93822ZM0.997308 11.4471L1.72319 10.9382L2.42553 11.4471L2.20716 10.5415L2.7712 9.96758H2.05334L1.72217 9.22852L1.43974 9.96758H0.597656L1.24237 10.5415L0.997308 11.4471ZM5.72319 10.9382L4.99731 11.4471L5.24237 10.5415L4.59766 9.96758H5.43974L5.72217 9.22852L6.05334 9.96758H6.7712L6.20716 10.5415L6.42553 11.4471L5.72319 10.9382ZM8.99731 11.4471L9.72319 10.9382L10.4255 11.4471L10.2072 10.5415L10.7712 9.96758H10.0533L9.72217 9.22852L9.43974 9.96758H8.59766L9.24237 10.5415L8.99731 11.4471ZM13.7232 10.9382L12.9973 11.4471L13.2424 10.5415L12.5977 9.96758H13.4397L13.7222 9.22852L14.0533 9.96758H14.7712L14.2072 10.5415L14.4255 11.4471L13.7232 10.9382ZM16.9973 3.4471L17.7232 2.93822L18.4255 3.4471L18.2072 2.54149L18.7712 1.96758H18.0533L17.7222 1.22852L17.4397 1.96758H16.5977L17.2424 2.54149L16.9973 3.4471ZM17.7232 6.93822L16.9973 7.4471L17.2424 6.54149L16.5977 5.96758H17.4397L17.7222 5.22852L18.0533 5.96758H18.7712L18.2072 6.54149L18.4255 7.4471L17.7232 6.93822ZM16.9973 11.4471L17.7232 10.9382L18.4255 11.4471L18.2072 10.5415L18.7712 9.96758H18.0533L17.7222 9.22852L17.4397 9.96758H16.5977L17.2424 10.5415L16.9973 11.4471ZM3.72319 4.93822L2.99731 5.4471L3.24237 4.54149L2.59766 3.96758H3.43974L3.72217 3.22852L4.05334 3.96758H4.7712L4.20716 4.54149L4.42553 5.4471L3.72319 4.93822ZM6.99731 5.4471L7.72319 4.93822L8.42553 5.4471L8.20716 4.54149L8.7712 3.96758H8.05334L7.72217 3.22852L7.43974 3.96758H6.59766L7.24237 4.54149L6.99731 5.4471ZM11.7232 4.93822L10.9973 5.4471L11.2424 4.54149L10.5977 3.96758H11.4397L11.7222 3.22852L12.0533 3.96758H12.7712L12.2072 4.54149L12.4255 5.4471L11.7232 4.93822ZM2.99731 9.44711L3.72319 8.93822L4.42553 9.44711L4.20716 8.54149L4.7712 7.96758H4.05334L3.72217 7.22852L3.43974 7.96758H2.59766L3.24237 8.54149L2.99731 9.44711ZM7.72319 8.93822L6.99731 9.44711L7.24237 8.54149L6.59766 7.96758H7.43974L7.72217 7.22852L8.05334 7.96758H8.7712L8.20716 8.54149L8.42553 9.44711L7.72319 8.93822ZM10.9973 9.44711L11.7232 8.93822L12.4255 9.44711L12.2072 8.54149L12.7712 7.96758H12.0533L11.7222 7.22852L11.4397 7.96758H10.5977L11.2424 8.54149L10.9973 9.44711ZM15.7232 4.93822L14.9973 5.4471L15.2424 4.54149L14.5977 3.96758H15.4397L15.7222 3.22852L16.0533 3.96758H16.7712L16.2072 4.54149L16.4255 5.4471L15.7232 4.93822ZM14.9973 9.44711L15.7232 8.93822L16.4255 9.44711L16.2072 8.54149L16.7712 7.96758H16.0533L15.7222 7.22852L15.4397 7.96758H14.5977L15.2424 8.54149L14.9973 9.44711Z" fill="#F7FCFF"/>
</g>
</g>
<rect x="0.5" y="0.5" width="31" height="23" rx="1.5" stroke="#E4E4E4"/>
<defs>
<clipPath id="clip0_1075_11512">
<rect width="32" height="24" rx="2" fill="white"/>
</clipPath>
</defs>
</svg>
