<svg width="28" height="28" viewBox="0 0 28 28" fill="none" xmlns="http://www.w3.org/2000/svg">
<g id="Frame 1000002543">
<g id="Group 1">
<path id="other_houses" d="M5.72481 20.0215V11.3277L4.32487 12.4789C4.13112 12.6284 3.92606 12.6874 3.7097 12.6559C3.49351 12.6246 3.31465 12.5065 3.1731 12.3016C3.03174 12.0966 2.97696 11.8797 3.00876 11.6509C3.04056 11.422 3.14773 11.2328 3.33028 11.0833L12.7733 3.42174C12.9542 3.28116 13.149 3.17567 13.3576 3.10529C13.5661 3.0351 13.7792 3 13.9971 3C14.2149 3 14.4263 3.0351 14.6313 3.10529C14.8362 3.17567 15.0292 3.28116 15.2103 3.42174L24.6809 11.0833C24.8633 11.2328 24.9676 11.422 24.9939 11.6509C25.02 11.8797 24.9624 12.0966 24.821 12.3016C24.6795 12.4944 24.5006 12.6066 24.2844 12.6381C24.0681 12.6694 23.8686 12.6103 23.6861 12.4608L22.2693 11.3277V20.0215C22.2693 20.6032 22.0745 21.1002 21.685 21.5124C21.2953 21.9244 20.8254 22.1304 20.2754 22.1304H7.7187C7.16869 22.1304 6.69882 21.9244 6.30911 21.5124C5.91958 21.1002 5.72481 20.6032 5.72481 20.0215ZM7.7187 20.3805H20.2754C20.3745 20.3805 20.4558 20.3468 20.5194 20.2796C20.583 20.2123 20.6148 20.1263 20.6148 20.0215V9.99746L14.1986 4.8284C14.142 4.7761 14.0748 4.74995 13.9971 4.74995C13.9193 4.74995 13.8521 4.7761 13.7955 4.8284L7.37926 9.99746V20.0215C7.37926 20.1263 7.41106 20.2123 7.47467 20.2796C7.53827 20.3468 7.61962 20.3805 7.7187 20.3805ZM7.7187 20.3805H7.37926H20.6148H7.7187Z" fill="#1D1E20"/>
<rect id="Rectangle 24" x="11.6094" y="12.5645" width="4.78261" height="9.56522" rx="1" fill="#1D1E20"/>
</g>
</g>
</svg>
