<svg width="44" height="44" viewBox="0 0 44 44" fill="none" xmlns="http://www.w3.org/2000/svg">
<g id="icon_off">
<g id="mode_off_on">
<mask id="mask0_2129_11552" style="mask-type:alpha" maskUnits="userSpaceOnUse" x="0" y="0" width="48" height="48">
<rect id="Bounding box" width="48" height="48" fill="#D9D9D9"/>
</mask>
<g mask="url(#mask0_2129_11552)">
<path id="mode_off_on_2" d="M21.9919 22.0917C21.4792 22.0917 21.0499 21.9167 20.704 21.5669C20.3578 21.217 20.1847 20.7868 20.1847 20.2762V4.65115C20.1847 4.14057 20.3604 3.70607 20.7118 3.34765C21.0632 2.98893 21.4954 2.80957 22.0084 2.80957C22.5211 2.80957 22.9504 2.98893 23.2963 3.34765C23.6425 3.70607 23.8156 4.14057 23.8156 4.65115V20.2762C23.8156 20.7868 23.6399 21.217 23.2885 21.5669C22.9372 21.9167 22.5049 22.0917 21.9919 22.0917ZM22.0002 39.2393C19.622 39.2393 17.3935 38.7909 15.3145 37.8941C13.2355 36.9976 11.4205 35.7737 9.86946 34.2224C8.31815 32.6714 7.09425 30.8564 6.19775 28.7774C5.30094 26.6984 4.85254 24.4698 4.85254 22.0917C4.85254 20.1361 5.17475 18.2536 5.81916 16.4441C6.46328 14.6349 7.40973 12.9882 8.65854 11.5042C9.00259 11.0776 9.44244 10.8481 9.97808 10.8157C10.5134 10.783 10.9818 10.9502 11.3833 11.3172C11.7216 11.6557 11.8808 12.0765 11.8609 12.5794C11.8411 13.082 11.6829 13.5379 11.3865 13.9471C10.4341 15.0871 9.71209 16.3619 9.22046 17.7714C8.72912 19.1806 8.48346 20.6207 8.48346 22.0917C8.48346 25.853 9.79597 29.0461 12.421 31.6708C15.0457 34.2958 18.2388 35.6084 22.0002 35.6084C25.7616 35.6084 28.9546 34.2958 31.5793 31.6708C34.2044 29.0461 35.5169 25.853 35.5169 22.0917C35.5169 20.5758 35.2712 19.1287 34.7799 17.7503C34.2882 16.372 33.5748 15.0976 32.6395 13.9274C32.3159 13.4996 32.1457 13.0466 32.1289 12.5684C32.1118 12.0902 32.2774 11.6769 32.6257 11.3286C33.052 10.9369 33.548 10.7649 34.1139 10.8125C34.6801 10.8605 35.1438 11.1129 35.505 11.5697C36.7367 13.0538 37.6561 14.6972 38.2632 16.5C38.8703 18.3028 39.1739 20.1667 39.1739 22.0917C39.1739 24.4698 38.7212 26.6984 37.8159 28.7774C36.9105 30.8564 35.6822 32.6714 34.1309 34.2224C32.5799 35.7737 30.7649 36.9976 28.6859 37.8941C26.6069 38.7909 24.3783 39.2393 22.0002 39.2393Z" fill="#1C1C1C"/>
</g>
</g>
</g>
</svg>
