<svg width="44" height="44" viewBox="0 0 44 44" fill="none" xmlns="http://www.w3.org/2000/svg">
<g id="autorenew">
<mask id="mask0_2129_11600" style="mask-type:alpha" maskUnits="userSpaceOnUse" x="0" y="0" width="44" height="44">
<rect id="Bounding box" width="44" height="44" fill="#D9D9D9"/>
</mask>
<g mask="url(#mask0_2129_11600)">
<path id="autorenew_2" d="M10.0833 22.0918C10.0833 22.7029 10.1214 23.2988 10.1978 23.8793C10.2742 24.4599 10.3888 25.0099 10.5416 25.5293C10.6333 25.896 10.6103 26.2627 10.4728 26.6293C10.3353 26.996 10.0985 27.2557 9.76242 27.4085C9.42631 27.5613 9.08256 27.5613 8.73117 27.4085C8.37978 27.2557 8.14297 27.0113 8.02075 26.6752C7.77631 25.9113 7.60061 25.155 7.49367 24.4064C7.38672 23.6578 7.33325 22.8863 7.33325 22.0918C7.33325 18.0891 8.777 14.6439 11.6645 11.7564C14.552 8.86891 17.9971 7.42516 21.9999 7.42516H23.9708L21.1749 4.62933C20.9305 4.38488 20.8083 4.09461 20.8083 3.7585C20.8083 3.42238 20.9305 3.13211 21.1749 2.88766C21.4194 2.64322 21.7173 2.521 22.0687 2.521C22.4201 2.521 22.718 2.64322 22.9624 2.88766L27.9583 7.83766C28.2333 8.11266 28.3708 8.4335 28.3708 8.80016C28.3708 9.16683 28.2333 9.48766 27.9583 9.76266L23.0083 14.7127C22.7638 14.9571 22.4583 15.0793 22.0916 15.0793C21.7249 15.0793 21.4194 14.9571 21.1749 14.7127C20.9305 14.4682 20.8083 14.1627 20.8083 13.796C20.8083 13.4293 20.9305 13.1238 21.1749 12.8793L23.8791 10.1752H21.9999C18.7305 10.1752 15.927 11.3439 13.5895 13.6814C11.252 16.0189 10.0833 18.8224 10.0833 22.0918ZM33.9166 22.046C33.9166 21.4349 33.8784 20.8391 33.802 20.2585C33.7256 19.6779 33.611 19.1127 33.4583 18.5627C33.336 18.196 33.3437 17.8293 33.4812 17.4627C33.6187 17.096 33.8555 16.8363 34.1916 16.6835C34.5277 16.5307 34.8638 16.5307 35.1999 16.6835C35.536 16.8363 35.7652 17.0807 35.8874 17.4168C36.1624 18.1807 36.361 18.9446 36.4833 19.7085C36.6055 20.4724 36.6666 21.2516 36.6666 22.046C36.6666 26.0488 35.2228 29.4939 32.3353 32.3814C29.4478 35.2689 26.0027 36.7127 21.9999 36.7127H19.9374L22.7333 39.5085C22.9777 39.7529 23.0999 40.0432 23.0999 40.3793C23.0999 40.7154 22.9777 41.0057 22.7333 41.2502C22.4888 41.4946 22.1909 41.6168 21.8395 41.6168C21.4881 41.6168 21.1902 41.4946 20.9458 41.2502L15.9499 36.3002C15.6749 36.0252 15.5374 35.7043 15.5374 35.3377C15.5374 34.971 15.6749 34.6502 15.9499 34.3752L20.9458 29.3793C21.1902 29.1349 21.4881 29.0127 21.8395 29.0127C22.1909 29.0127 22.4888 29.1349 22.7333 29.3793C22.9777 29.6238 23.0999 29.9217 23.0999 30.2731C23.0999 30.6245 22.9777 30.9224 22.7333 31.1668L19.9374 33.9627H21.9999C25.2694 33.9627 28.0728 32.7939 30.4103 30.4564C32.7478 28.1189 33.9166 25.3154 33.9166 22.046Z" fill="#1C1C1C"/>
</g>
</g>
</svg>
