<svg width="160" height="32" viewBox="0 0 160 32" fill="none" xmlns="http://www.w3.org/2000/svg">
<g id="logo" clip-path="url(#clip0_2129_11526)">
<path id="Vector" d="M22.8737 25.389H7.34104L3.67465 31.7362H11.8084L19.1495 19.0417L15.4748 12.6945H22.8737L26.5483 19.0417L22.8737 25.389ZM3.66639 6.34724H19.199L22.8737 0H14.7399L7.39885 12.6945L11.0735 19.0417H3.66639L0 12.6945L3.66639 6.34724Z" fill="#0E2A70"/>
<g id="Group">
<path id="Vector_2" d="M40.8341 21.2675C45.8796 21.2675 48.266 18.7533 48.266 15.8105C48.266 9.08408 37.3659 11.623 37.3659 7.71572C37.3659 6.32262 38.522 5.21803 41.3544 5.21803C42.9564 5.21803 44.773 5.68789 46.4246 6.66059L47.4981 4.01453C45.8961 2.96765 43.5839 2.39062 41.3792 2.39062C36.3337 2.39062 33.972 4.90479 33.972 7.87234C33.972 14.6812 44.8969 12.0928 44.8969 16.0496C44.8969 17.4097 43.6913 18.4401 40.8259 18.4401C38.5633 18.4401 36.2264 17.5993 34.7565 16.4205L33.5757 19.0666C35.1033 20.3772 37.9605 21.2675 40.8259 21.2675" fill="#424B5A"/>
<path id="Vector_3" d="M64.6081 2.646V15.0767L54.4677 2.646H51.6519V21.0035H55.0457V8.57284L65.1861 21.0035H67.9937V2.646H64.6081Z" fill="#424B5A"/>
<path id="Vector_4" d="M76.8211 14.0793L80.2645 6.05867L83.7328 14.0793H76.8211ZM86.6972 21.0035H90.2728L81.9739 2.646H78.613L70.3389 21.0035H73.8566L75.665 16.7583H84.8558L86.6972 21.0035Z" fill="#424B5A"/>
<path id="Vector_5" d="M100.016 12.8263H96.028V5.53111H100.016C103.014 5.53111 104.558 6.8665 104.558 9.17459C104.558 11.4827 103.006 12.8181 100.016 12.8181M100.173 2.646H92.6094V21.0035H96.028V15.7032H100.182C105.012 15.7032 108.01 13.2137 108.01 9.17459C108.01 5.13543 105.012 2.646 100.182 2.646H100.173Z" fill="#424B5A"/>
<path id="Vector_6" d="M115.781 21.0035H117.721V4.3276H124.187V2.646H109.315V4.3276H115.781V21.0035Z" fill="#424B5A"/>
<path id="Vector_7" d="M128.365 14.5327L132.775 4.67387L137.184 14.5327H128.357H128.365ZM140.108 21.0118H142.156L133.749 2.6543H131.834L123.427 21.0118H125.45L127.655 16.1072H137.903L140.108 21.0118Z" fill="#424B5A"/>
<path id="Vector_8" d="M157.886 18.0195C156.466 19.0416 154.839 19.4373 153.08 19.4373C148.563 19.4373 145.227 16.1895 145.227 11.8288C145.227 7.46819 148.563 4.22038 153.105 4.22038C155.26 4.22038 157.102 4.84686 158.646 6.37185L159.852 5.14362C158.225 3.38782 155.805 2.49756 153.022 2.49756C147.399 2.49756 143.303 6.45428 143.303 11.8371C143.303 17.2199 147.399 21.1766 152.998 21.1766C155.549 21.1766 158.018 20.3935 159.752 18.8438V11.8453H157.886V18.0359V18.0195Z" fill="#424B5A"/>
<g id="Group_2">
<path id="Vector_9" d="M34.707 25.3809H35.3842L37.2999 30.0053L39.224 25.3809H39.8763L37.5642 30.7884H37.0274L34.7153 25.3809H34.707Z" fill="#424B5A"/>
<path id="Vector_10" d="M43.3691 29.5849C43.3691 28.7359 44.0628 28.2908 45.0702 28.2908C45.5739 28.2908 45.929 28.3567 46.2841 28.4556V28.332C46.2841 27.6231 45.8547 27.2604 45.1115 27.2604C44.6408 27.2604 44.2775 27.3758 43.9059 27.5406L43.7325 27.0543C44.1701 26.8564 44.5913 26.7163 45.1776 26.7163C45.7639 26.7163 46.1767 26.8729 46.4575 27.1532C46.73 27.4335 46.8704 27.8126 46.8704 28.3155V30.739H46.2841V30.1455C46.0116 30.4999 45.5574 30.8214 44.8555 30.8214C44.1123 30.8214 43.3691 30.401 43.3691 29.5849ZM46.2923 29.2964V28.9255C46.0033 28.843 45.6152 28.7524 45.1363 28.7524C44.4013 28.7524 43.9802 29.0739 43.9802 29.552V29.5684C43.9802 30.063 44.4426 30.3598 44.9794 30.3598C45.7061 30.3598 46.3006 29.9229 46.3006 29.2964H46.2923Z" fill="#424B5A"/>
<path id="Vector_11" d="M51.5527 25.1499H52.1462V30.747H51.5527V25.1499Z" fill="#424B5A"/>
<path id="Vector_12" d="M56.8374 29.2469V26.7822H57.432V29.0986C57.432 29.8322 57.8283 30.2938 58.5302 30.2938C59.2321 30.2938 59.7193 29.7992 59.7193 29.0491V26.7822H60.3056V30.7472H59.7193V30.0548C59.4468 30.4834 59.0422 30.8296 58.3568 30.8296C57.3989 30.8296 56.8374 30.1867 56.8374 29.2387V29.2469Z" fill="#424B5A"/>
<path id="Vector_13" d="M66.763 30.335C67.308 30.335 67.6962 30.1124 68.0182 29.7745L68.3898 30.1042C67.9934 30.5493 67.5062 30.8461 66.7548 30.8461C65.6648 30.8461 64.7729 30.0135 64.7729 28.777C64.7729 27.623 65.5822 26.708 66.6805 26.708C67.853 26.708 68.5302 27.6477 68.5302 28.81C68.5302 28.8677 68.5302 28.9254 68.5302 29.0161H65.384C65.4666 29.8487 66.0859 30.335 66.7796 30.335H66.763ZM67.9191 28.538C67.853 27.8208 67.4319 27.2026 66.6474 27.2026C65.962 27.2026 65.4418 27.7714 65.3592 28.538H67.9191Z" fill="#424B5A"/>
<path id="Vector_14" d="M79.2156 29.9969V30.7553H78.6211V25.1582H79.2156V27.5899C79.5377 27.1118 80.0084 26.7079 80.735 26.7079C81.6847 26.7079 82.6343 27.458 82.6343 28.7605V28.777C82.6343 30.0711 81.6929 30.8378 80.735 30.8378C80.0001 30.8378 79.5212 30.4421 79.2156 29.9969ZM82.0315 28.7852V28.7687C82.0315 27.829 81.3874 27.2355 80.636 27.2355C79.8845 27.2355 79.1991 27.8537 79.1991 28.7605V28.777C79.1991 29.7002 79.901 30.3102 80.636 30.3102C81.3709 30.3102 82.0315 29.7414 82.0315 28.7852Z" fill="#424B5A"/>
<path id="Vector_15" d="M88.8524 30.335C89.3974 30.335 89.7855 30.1124 90.1076 29.7745L90.4791 30.1042C90.0828 30.5493 89.5956 30.8461 88.8441 30.8461C87.7541 30.8461 86.8623 30.0135 86.8623 28.777C86.8623 27.623 87.6716 26.708 88.7698 26.708C89.9424 26.708 90.6195 27.6477 90.6195 28.81C90.6195 28.8677 90.6195 28.9254 90.6195 29.0161H87.4734C87.5559 29.8487 88.1753 30.335 88.8689 30.335H88.8524ZM90.0085 28.538C89.9424 27.8208 89.5213 27.2026 88.745 27.2026C88.0597 27.2026 87.5394 27.7714 87.4569 28.538H90.0167H90.0085Z" fill="#424B5A"/>
<path id="Vector_16" d="M94.608 31.8024L94.8062 31.3325C94.9961 31.4314 95.1778 31.4809 95.4255 31.4809C95.7806 31.4809 96.0035 31.2995 96.243 30.739L94.4346 26.7905H95.0869L96.532 30.096L97.8037 26.7905H98.4313L96.7632 30.8874C96.4247 31.7035 96.0448 32.0085 95.442 32.0085C95.1117 32.0085 94.864 31.9425 94.5997 31.8106L94.608 31.8024Z" fill="#424B5A"/>
<path id="Vector_17" d="M102.279 28.7935V28.777C102.279 27.656 103.155 26.708 104.352 26.708C105.549 26.708 106.416 27.6477 106.416 28.7606V28.777C106.416 29.8981 105.533 30.8461 104.335 30.8461C103.138 30.8461 102.279 29.9146 102.279 28.7935ZM105.814 28.7935V28.777C105.814 27.928 105.178 27.2273 104.335 27.2273C103.493 27.2273 102.882 27.928 102.882 28.7606V28.777C102.882 29.6261 103.51 30.3185 104.352 30.3185C105.194 30.3185 105.814 29.6261 105.814 28.7935Z" fill="#424B5A"/>
<path id="Vector_18" d="M110.867 26.7904H111.462V27.4829C111.726 27.0542 112.139 26.708 112.824 26.708C113.782 26.708 114.344 27.351 114.344 28.2989V30.7636H113.749V28.4473C113.749 27.7137 113.353 27.2521 112.651 27.2521C111.949 27.2521 111.462 27.7466 111.462 28.4968V30.7636H110.867V26.7987V26.7904Z" fill="#424B5A"/>
<path id="Vector_19" d="M118.753 28.7852V28.7687C118.753 27.4745 119.695 26.7079 120.653 26.7079C121.388 26.7079 121.867 27.1036 122.172 27.5487V25.1582H122.767V30.7553H122.172V29.9557C121.85 30.4338 121.379 30.8378 120.653 30.8378C119.703 30.8378 118.753 30.0876 118.753 28.7852ZM122.197 28.7852V28.7687C122.197 27.8537 121.495 27.2437 120.76 27.2437C120.025 27.2437 119.364 27.8125 119.364 28.7687V28.7852C119.364 29.7249 120.009 30.3184 120.76 30.3184C121.511 30.3184 122.197 29.7002 122.197 28.7852Z" fill="#424B5A"/>
<path id="Vector_20" d="M133.246 25.3809H135.112C136.805 25.3809 137.969 26.5349 137.969 28.0516V28.0681C137.969 29.5766 136.805 30.7554 135.112 30.7554H133.246V25.3891V25.3809ZM135.112 30.1866C136.474 30.1866 137.341 29.2634 137.341 28.0764V28.0599C137.341 26.8729 136.474 25.9332 135.112 25.9332H133.848V30.1784H135.112V30.1866Z" fill="#424B5A"/>
<path id="Vector_21" d="M142.23 29.5849C142.23 28.7359 142.924 28.2908 143.931 28.2908C144.435 28.2908 144.79 28.3567 145.145 28.4556V28.332C145.145 27.6231 144.716 27.2604 143.972 27.2604C143.502 27.2604 143.138 27.3758 142.767 27.5406L142.593 27.0543C143.031 26.8564 143.452 26.7163 144.038 26.7163C144.625 26.7163 145.038 26.8729 145.318 27.1532C145.591 27.4335 145.731 27.8126 145.731 28.3155V30.739H145.145V30.1455C144.864 30.4999 144.418 30.8214 143.716 30.8214C142.973 30.8214 142.23 30.401 142.23 29.5849ZM145.153 29.2964V28.9255C144.864 28.843 144.476 28.7524 143.989 28.7524C143.254 28.7524 142.833 29.0739 142.833 29.552V29.5684C142.833 30.063 143.295 30.3598 143.832 30.3598C144.559 30.3598 145.153 29.9229 145.153 29.2964Z" fill="#424B5A"/>
<path id="Vector_22" d="M150.529 29.7003V27.3098H149.976V26.7905H150.529V25.5952H151.123V26.7905H152.387V27.3098H151.123V29.6261C151.123 30.1125 151.396 30.2856 151.792 30.2856C151.99 30.2856 152.164 30.2444 152.37 30.1454V30.6483C152.164 30.7554 151.941 30.8214 151.66 30.8214C151.024 30.8214 150.537 30.5081 150.537 29.7003H150.529Z" fill="#424B5A"/>
<path id="Vector_23" d="M156.507 29.5849C156.507 28.7359 157.201 28.2908 158.208 28.2908C158.712 28.2908 159.067 28.3567 159.422 28.4556V28.332C159.422 27.6231 158.993 27.2604 158.25 27.2604C157.779 27.2604 157.416 27.3758 157.044 27.5406L156.871 27.0543C157.308 26.8564 157.729 26.7163 158.316 26.7163C158.902 26.7163 159.315 26.8729 159.596 27.1532C159.876 27.4335 160.009 27.8126 160.009 28.3155V30.739H159.422V30.1455C159.142 30.4999 158.696 30.8214 157.994 30.8214C157.251 30.8214 156.507 30.401 156.507 29.5849ZM159.431 29.2964V28.9255C159.142 28.843 158.753 28.7524 158.274 28.7524C157.54 28.7524 157.11 29.0739 157.11 29.552V29.5684C157.11 30.063 157.573 30.3598 158.109 30.3598C158.836 30.3598 159.431 29.9229 159.431 29.2964Z" fill="#424B5A"/>
</g>
</g>
</g>
<defs>
<clipPath id="clip0_2129_11526">
<rect width="160" height="32" fill="white"/>
</clipPath>
</defs>
</svg>
